<?xml version="1.0" encoding="UTF-8"?>
<svg version="1.1" xmlns="http://www.w3.org/2000/svg" width="120" height="120">
<path d="M0 0 C-0.33 1.32 -0.66 2.64 -1 4 C0.299375 3.95875 1.59875 3.9175 2.9375 3.875 C12.07032983 3.93216951 18.96009455 5.99420495 26 12 C30.57495133 16.91383662 35 23.07792118 35 30 C35.66 30.04125 36.32 30.0825 37 30.125 C44.58997687 32.33874325 49.95470627 38.43514616 54 45 C56.22239501 51.66718503 56.39532716 62.10859892 53.5 68.5625 C48.67124433 76.21084377 41.55889899 80.55886143 33 83 C28.21274215 83.52783798 23.47587817 83.49114927 18.6640625 83.42578125 C17.29463175 83.42084132 15.92519417 83.41755291 14.55575562 83.41581726 C11.69970738 83.40822409 8.8441687 83.38781797 5.98828125 83.35668945 C2.36213943 83.31719431 -1.26367268 83.29908277 -4.89000511 83.28938007 C-8.39285868 83.27931196 -11.89563644 83.2595387 -15.3984375 83.23828125 C-16.68317963 83.23089432 -17.96792175 83.22350739 -19.29159546 83.21589661 C-45.88087459 82.93800965 -45.88087459 82.93800965 -53.84765625 75.20703125 C-58.35254918 69.66169622 -60.60468829 63.62369068 -61.375 56.5625 C-60.5528814 48.75237329 -58.67345064 42.54150993 -53 37 C-51.05003411 35.52832763 -49.09584158 34.26725305 -47 33 C-47.226875 31.72125 -47.45375 30.4425 -47.6875 29.125 C-48.42079091 22.48347946 -46.72977812 16.74378599 -43.1875 11.125 C-37.6986388 5.7929634 -33.10962431 3.85533271 -25.5625 3.8125 C-24.42941406 3.79832031 -23.29632813 3.78414062 -22.12890625 3.76953125 C-19.14542021 3.98928865 -17.50704577 4.44156614 -15 6 C-14.37931641 5.30970703 -14.37931641 5.30970703 -13.74609375 4.60546875 C-11.88229955 2.89177878 -10.42821071 2.17069448 -8.0625 1.3125 C-7.05896484 0.93544922 -7.05896484 0.93544922 -6.03515625 0.55078125 C-4 0 -4 0 0 0 Z " fill="#E5E9ED" transform="translate(65,29)"/>
<path d="M0 0 C-0.33 1.32 -0.66 2.64 -1 4 C0.299375 3.95875 1.59875 3.9175 2.9375 3.875 C12.07032983 3.93216951 18.96009455 5.99420495 26 12 C30.57495133 16.91383662 35 23.07792118 35 30 C36.65 30.33 38.3 30.66 40 31 C39.67 31.99 39.34 32.98 39 34 C39.61875 34.28875 40.2375 34.5775 40.875 34.875 C43 36 43 36 45 38 C43.35 37.67 41.7 37.34 40 37 C40 36.34 40 35.68 40 35 C39.27554688 34.85691406 38.55109375 34.71382812 37.8046875 34.56640625 C36.05696078 34.21345308 34.31158529 33.84837168 32.5703125 33.46484375 C27.59590585 32.39208832 23.08645378 31.77884984 18 32 C20.91765 30.0549 22.62537285 29.54723683 26 29 C26.74259966 21.47340584 26.74259966 21.47340584 23.6875 14.875 C21.08588353 12.87114328 21.08588353 12.87114328 18 12 C18 11.34 18 10.68 18 10 C1.81968159 8.96877976 1.81968159 8.96877976 -12.625 15.0625 C-14.19291567 16.87586534 -14.19291567 16.87586534 -14 19 C-14.71285156 18.93039063 -15.42570312 18.86078125 -16.16015625 18.7890625 C-21.22988238 18.5024831 -24.99465941 18.31557037 -29.0625 21.625 C-31.85381665 24.42967223 -33.16238435 27.09112697 -34 31 C-33.34 31.33 -32.68 31.66 -32 32 C-32 32.66 -32 33.32 -32 34 C-32.56847656 34.08636719 -33.13695313 34.17273437 -33.72265625 34.26171875 C-41.09658334 35.60355189 -45.77359993 37.96962213 -50.25 44.0625 C-52.80600567 49.02026963 -53.82645697 54.58569921 -55 60 C-57.66666667 56 -57.66666667 56 -58 53 C-57.411438 50.645752 -56.75407101 48.30657014 -56 46 C-56.66 46 -57.32 46 -58 46 C-57.42002201 42.08514857 -55.65821394 39.8737448 -53 37 C-51.04148656 35.60644236 -49.04872887 34.25717453 -47 33 C-47.226875 31.72125 -47.45375 30.4425 -47.6875 29.125 C-48.42079091 22.48347946 -46.72977812 16.74378599 -43.1875 11.125 C-37.6986388 5.7929634 -33.10962431 3.85533271 -25.5625 3.8125 C-24.42941406 3.79832031 -23.29632813 3.78414062 -22.12890625 3.76953125 C-19.14542021 3.98928865 -17.50704577 4.44156614 -15 6 C-14.37931641 5.30970703 -14.37931641 5.30970703 -13.74609375 4.60546875 C-11.88229955 2.89177878 -10.42821071 2.17069448 -8.0625 1.3125 C-7.05896484 0.93544922 -7.05896484 0.93544922 -6.03515625 0.55078125 C-4 0 -4 0 0 0 Z " fill="#D7DEE4" transform="translate(65,29)"/>
<path d="M0 0 C-0.8967921 4.03556445 -1.3797283 5.60408189 -4.9375 7.875 C-8 9 -8 9 -11 9 C-12.37482707 10.63260714 -13.70647667 12.30225062 -15 14 C-18.40170472 16.26780314 -19.75790338 16.21624386 -23.75 16.3125 C-29.43474629 16.71118837 -33.10836307 17.74316546 -37 22 C-39.24144748 25.58631597 -40.38625542 28.82653688 -41 33 C-43.475 33.495 -43.475 33.495 -46 34 C-48.19917487 26.56394108 -48.1905943 21.13116894 -45 14 C-41.85911672 9.01790929 -37.58852801 5.86284267 -32 4 C-29.85662235 3.87983672 -27.70920876 3.82468336 -25.5625 3.8125 C-24.42941406 3.79832031 -23.29632813 3.78414062 -22.12890625 3.76953125 C-19.14542021 3.98928865 -17.50704577 4.44156614 -15 6 C-14.37931641 5.30970703 -14.37931641 5.30970703 -13.74609375 4.60546875 C-11.88229955 2.89177878 -10.42821071 2.17069448 -8.0625 1.3125 C-7.05896484 0.93544922 -7.05896484 0.93544922 -6.03515625 0.55078125 C-4 0 -4 0 0 0 Z " fill="#FAE97C" transform="translate(65,29)"/>
<path d="M0 0 C6.59153155 4.60379066 10.8298834 10.94080518 13.25390625 18.57421875 C13.25390625 19.56421875 13.25390625 20.55421875 13.25390625 21.57421875 C14.90390625 21.90421875 16.55390625 22.23421875 18.25390625 22.57421875 C17.75890625 24.05921875 17.75890625 24.05921875 17.25390625 25.57421875 C18.18203125 26.00734375 18.18203125 26.00734375 19.12890625 26.44921875 C21.25390625 27.57421875 21.25390625 27.57421875 23.25390625 29.57421875 C21.60390625 29.24421875 19.95390625 28.91421875 18.25390625 28.57421875 C18.25390625 27.91421875 18.25390625 27.25421875 18.25390625 26.57421875 C17.52945313 26.43113281 16.805 26.28804687 16.05859375 26.140625 C14.31086703 25.78767183 12.56549154 25.42259043 10.82421875 25.0390625 C5.8498121 23.96630707 1.34036003 23.35306859 -3.74609375 23.57421875 C-0.82844375 21.62911875 0.8792791 21.12145558 4.25390625 20.57421875 C4.99650591 13.04762459 4.99650591 13.04762459 1.94140625 6.44921875 C-0.66021022 4.44536203 -0.66021022 4.44536203 -3.74609375 3.57421875 C-3.74609375 2.58421875 -3.74609375 1.59421875 -3.74609375 0.57421875 C-7.59261081 -0.6716968 -11.43662987 -0.57359931 -15.43359375 -0.55078125 C-16.12259766 -0.55464844 -16.81160156 -0.55851562 -17.52148438 -0.5625 C-20.92002754 -0.85564039 -20.92002754 -0.85564039 -23.74609375 0.57421875 C-25.74567739 0.61502658 -27.74654629 0.61676231 -29.74609375 0.57421875 C-28.46557306 -1.98682262 -27.58375764 -2.13439188 -24.93359375 -3.11328125 C-16.30928958 -5.78270873 -7.80112188 -4.37013088 0 0 Z " fill="#BEC9D2" transform="translate(86.74609375,37.42578125)"/>
<path d="M0 0 C-0.8967921 4.03556445 -1.3797283 5.60408189 -4.9375 7.875 C-8 9 -8 9 -11 9 C-11.33 9.66 -11.66 10.32 -12 11 C-16 9 -16 9 -17.7734375 7.9453125 C-23.16819373 5.65490722 -30.01871946 6.59007989 -35.625 7.75 C-38.36126076 9.19013724 -38.90710582 10.17669003 -40 13 C-40.99 13.495 -40.99 13.495 -42 14 C-44.12784853 20.3835456 -44.22124638 26.31344281 -44 33 C-44.99 32.67 -45.98 32.34 -47 32 C-48.58135092 24.23700457 -47.4477648 17.8826614 -43.1875 11.125 C-37.6986388 5.7929634 -33.10962431 3.85533271 -25.5625 3.8125 C-24.42941406 3.79832031 -23.29632813 3.78414062 -22.12890625 3.76953125 C-19.14542021 3.98928865 -17.50704577 4.44156614 -15 6 C-14.37931641 5.30970703 -14.37931641 5.30970703 -13.74609375 4.60546875 C-11.88229955 2.89177878 -10.42821071 2.17069448 -8.0625 1.3125 C-7.05896484 0.93544922 -7.05896484 0.93544922 -6.03515625 0.55078125 C-4 0 -4 0 0 0 Z " fill="#D06817" transform="translate(65,29)"/>
<path d="M0 0 C2.23375255 1.45655884 3.71913429 2.77420609 4.91796875 5.171875 C1.95621752 4.55909888 0.53738092 3.91814978 -2.08203125 2.171875 C-7.768221 1.38212642 -13.37388799 1.11400793 -18.26953125 4.421875 C-20.9981424 7.08985034 -21.46380395 7.68596684 -22.08203125 11.171875 C-20.10203125 11.171875 -18.12203125 11.171875 -16.08203125 11.171875 C-16.86578125 12.161875 -17.64953125 13.151875 -18.45703125 14.171875 C-21.25609088 18.04932588 -22.18142768 21.50511103 -23.08203125 26.171875 C-24.73203125 26.501875 -26.38203125 26.831875 -28.08203125 27.171875 C-27.75203125 26.511875 -27.42203125 25.851875 -27.08203125 25.171875 C-27.08778321 23.65048187 -27.13568242 22.12910507 -27.20703125 20.609375 C-27.24051078 14.81741561 -26.62596756 9.09348252 -22.6875 4.5703125 C-16.3277199 -0.93613002 -8.12827746 -3.23301092 0 0 Z " fill="#F9D636" transform="translate(47.08203125,35.828125)"/>
<path d="M0 0 C1.6290187 0.09050104 3.25459628 0.24727869 4.875 0.4375 C7.62619649 0.75432875 10.22703147 1 13 1 C14.73046409 1.15260786 16.45962045 1.32048005 18.1875 1.5 C19.08855469 1.5928125 19.98960938 1.685625 20.91796875 1.78125 C21.94857422 1.88953125 21.94857422 1.88953125 23 2 C21.125 3.0625 21.125 3.0625 19 4 C18.34 3.67 17.68 3.34 17 3 C17 3.66 17 4.32 17 5 C15.865625 4.98839844 14.73125 4.97679688 13.5625 4.96484375 C12.04166833 4.9554559 10.52083486 4.94635678 9 4.9375 C8.25621094 4.92912109 7.51242188 4.92074219 6.74609375 4.91210938 C1.73195972 4.89030879 -3.03254883 5.32380246 -8 6 C-13.08572406 6.33184542 -17.36000746 6.39483486 -22 4 C-21.67 3.01 -21.34 2.02 -21 1 C-20.030625 1.185625 -19.06125 1.37125 -18.0625 1.5625 C-17.051875 1.706875 -16.04125 1.85125 -15 2 C-14.67 1.67 -14.34 1.34 -14 1 C-10.63177974 0.92756516 -7.27456608 1.00392059 -3.90625 1.0625 C-1.10693626 1.33751634 -1.10693626 1.33751634 0 0 Z " fill="#C8D1DA" transform="translate(69,100)"/>
<path d="M0 0 C4.84659077 0.59104765 8.60748167 1.97944157 13 4 C13 4.99 13 5.98 13 7 C11.37064759 8.37868281 9.70250393 9.71274093 8 11 C7.67 11.66 7.34 12.32 7 13 C6.01 13 5.02 13 4 13 C3.32404685 11.58774074 2.65959941 10.16997095 2 8.75 C1.62875 7.96109375 1.2575 7.1721875 0.875 6.359375 C0 4 0 4 0 0 Z " fill="#CB6916" transform="translate(14,29)"/>
<path d="M0 0 C0.99 0 1.98 0 3 0 C3.67057887 1.7902061 4.3363469 3.58221489 5 5.375 C5.556875 6.87160156 5.556875 6.87160156 6.125 8.3984375 C7 11 7 11 7 13 C3.04 13 -0.92 13 -5 13 C-2.05357143 3.89285714 -2.05357143 3.89285714 0 0 Z " fill="#D59428" transform="translate(38,19)"/>
<path d="M0 0 C0 3.96 0 7.92 0 12 C-3.82303833 11.23539233 -6.38393238 10.52385218 -9.8125 8.9375 C-10.60269531 8.57527344 -11.39289062 8.21304688 -12.20703125 7.83984375 C-13.09455078 7.42412109 -13.09455078 7.42412109 -14 7 C-14 6.34 -14 5.68 -14 5 C-12.04350603 4.16235732 -10.08474444 3.33000941 -8.125 2.5 C-6.48917969 1.80390625 -6.48917969 1.80390625 -4.8203125 1.09375 C-2 0 -2 0 0 0 Z " fill="#F0BD37" transform="translate(17,48)"/>
<path d="M0 0 C2.52750327 1.06396737 3.92722406 2.1575325 6 4 C4 6 4 6 1.93701172 6.13525391 C1.10959473 6.08288574 0.28217773 6.03051758 -0.5703125 5.9765625 C-1.46621094 5.925 -2.36210938 5.8734375 -3.28515625 5.8203125 C-4.22230469 5.75585938 -5.15945312 5.69140625 -6.125 5.625 C-7.06988281 5.56828125 -8.01476563 5.5115625 -8.98828125 5.453125 C-11.32626481 5.31142903 -13.66320944 5.16000217 -16 5 C-12.91880284 -1.82265085 -6.78264003 -0.68003032 0 0 Z " fill="#FCED97" transform="translate(45,37)"/>
<path d="M0 0 C2.45823172 3.68734758 3.01242616 6.69699971 4 11 C5.11375 10.95875 6.2275 10.9175 7.375 10.875 C11 11 11 11 13 13 C12.67 13.66 12.34 14.32 12 15 C12.61875 15.28875 13.2375 15.5775 13.875 15.875 C16 17 16 17 18 19 C16.35 18.67 14.7 18.34 13 18 C13 17.34 13 16.68 13 16 C11.91332031 15.78537109 11.91332031 15.78537109 10.8046875 15.56640625 C9.05696078 15.21345308 7.31158529 14.84837168 5.5703125 14.46484375 C0.59590585 13.39208832 -3.91354622 12.77884984 -9 13 C-6.08235 11.0549 -4.37462715 10.54723683 -1 10 C-0.67 6.7 -0.34 3.4 0 0 Z " fill="#D4DBE2" transform="translate(92,48)"/>
<path d="M0 0 C0.33 0.99 0.66 1.98 1 3 C-0.375 4.5 -0.375 4.5 -2 6 C-2.66 6 -3.32 6 -4 6 C-4 6.66 -4 7.32 -4 8 C-4.7734375 7.99097656 -5.546875 7.98195313 -6.34375 7.97265625 C-13.23511285 8.16882128 -17.44456899 8.99433803 -22.375 13.9453125 C-24.87539631 17.1068713 -26.43701812 20.28791805 -28 24 C-28.33 24 -28.66 24 -29 24 C-28.66263804 17.47766875 -27.69382647 14.58714859 -23 10 C-19.22593586 7.3042399 -16.60735577 6.6624044 -12 6.5625 C-8.01667009 6.32732185 -6.28434539 6.17283739 -2.8125 4.0625 C-0.95864484 2.12936743 -0.95864484 2.12936743 0 0 Z " fill="#C6CCC8" transform="translate(53,38)"/>
<path d="M0 0 C1.32 0.66 2.64 1.32 4 2 C3.34 2 2.68 2 2 2 C2 2.66 2 3.32 2 4 C1.401875 4.433125 0.80375 4.86625 0.1875 5.3125 C-2.32196066 7.24836965 -3.39595592 9.3022895 -5 12 C-5.66 12 -6.32 12 -7 12 C-7 12.66 -7 13.32 -7 14 C-8.32 13.67 -9.64 13.34 -11 13 C-10.42002201 9.08514857 -8.65821394 6.8737448 -6 4 C-4.04148656 2.60644236 -2.04872887 1.25717453 0 0 Z " fill="#C6D0D8" transform="translate(18,62)"/>
<path d="M0 0 C0.66 0.33 1.32 0.66 2 1 C0.576875 1.37125 0.576875 1.37125 -0.875 1.75 C-4.08246095 2.66955467 -4.08246095 2.66955467 -5.25 5.0625 C-5.4975 5.701875 -5.745 6.34125 -6 7 C-6.99 7.495 -6.99 7.495 -8 8 C-10.12784853 14.3835456 -10.22124638 20.31344281 -10 27 C-10.99 26.67 -11.98 26.34 -13 26 C-14.59264306 18.18157045 -13.35029415 11.9451366 -9.25 5.0625 C-6.29508197 2.35382513 -3.80568485 1.26856162 0 0 Z " fill="#CF6815" transform="translate(31,35)"/>
<path d="M0 0 C1.33543106 2.67086212 1.01240487 5.04891128 0.96484375 7.9765625 C0.93885138 10.12741674 0.93885138 10.12741674 1.5625 12.6875 C2.07434852 15.39298503 1.68040693 17.35397305 1 20 C-0.65 20.33 -2.3 20.66 -4 21 C-3.67 20.34 -3.34 19.68 -3 19 C-3.00575196 17.47860687 -3.05365117 15.95723007 -3.125 14.4375 C-3.20210676 9.14026539 -1.97808232 4.87455999 0 0 Z " fill="#F3BA29" transform="translate(23,42)"/>
<path d="M0 0 C0.66 0.33 1.32 0.66 2 1 C1.39671875 1.39832031 0.7934375 1.79664063 0.171875 2.20703125 C-0.62734375 2.73683594 -1.4265625 3.26664062 -2.25 3.8125 C-3.03890625 4.33457031 -3.8278125 4.85664062 -4.640625 5.39453125 C-7.00126088 6.91616401 -7.00126088 6.91616401 -8.87109375 8.7265625 C-11.98723952 10.59053226 -14.25720772 9.9977633 -17.8125 9.5625 C-23.2003297 9.03439156 -26.99514528 8.97422547 -32 11 C-29.75074624 7.90727608 -26.93638747 7.10138754 -23.3046875 6.25 C-20.71944986 5.96956744 -18.61887021 6.30402887 -16.0625 6.75 C-11.70386104 7.35630217 -9.63404973 6.58658745 -6 4.125 C-4.65799377 3.09453093 -3.32289342 2.05489346 -2 1 C-1.34 0.67 -0.68 0.34 0 0 Z " fill="#D7DEE3" transform="translate(81,61)"/>
<path d="M0 0 C-0.5625 2.8125 -0.5625 2.8125 -2 6 C-4.28536073 7.44088563 -6.40707624 8.13569208 -9 9 C-11 6 -11 6 -11 3 C-4.5 0 -4.5 0 0 0 Z " fill="#DAAE40" transform="translate(65,29)"/>
<path d="M0 0 C0 0.33 0 0.66 0 1 C-1.7634375 1.061875 -1.7634375 1.061875 -3.5625 1.125 C-8.63107425 1.76419853 -11.77402317 4.11274261 -15 8 C-16.48472611 11.18882252 -16.48472611 11.18882252 -17 14 C-16.34 14.33 -15.68 14.66 -15 15 C-15 15.66 -15 16.32 -15 17 C-17.31 17 -19.62 17 -22 17 C-17.02839642 6.55963247 -12.40189794 -1.24018979 0 0 Z " fill="#DAE0E6" transform="translate(48,46)"/>
<path d="M0 0 C3.19736066 1.2717457 5.42395477 2.84790955 7 6 C4.03824877 5.38722388 2.61941217 4.74627478 0 3 C-2.83665329 2.68193122 -2.83665329 2.68193122 -5.9375 2.75 C-6.97777344 2.74484375 -8.01804687 2.7396875 -9.08984375 2.734375 C-11.93098495 2.99370064 -13.58707634 3.53480298 -16 5 C-16 4.01 -16 3.02 -16 2 C-11.01181889 -0.98336191 -5.63328581 -0.63177037 0 0 Z " fill="#F6D44D" transform="translate(45,35)"/>
<path d="M0 0 C3.55780196 0.60990891 6.6828589 1.5783681 10 3 C9.25 4.9375 9.25 4.9375 8 7 C6 7.8125 6 7.8125 4 8 C3.34 7.67 2.68 7.34 2 7 C1.26924352 4.6859378 0.59861742 2.35171131 0 0 Z " fill="#F5CF35" transform="translate(15,29)"/>
<path d="M0 0 C0 3.96 0 7.92 0 12 C-3.82303833 11.23539233 -6.38393238 10.52385218 -9.8125 8.9375 C-10.60269531 8.57527344 -11.39289062 8.21304688 -12.20703125 7.83984375 C-13.09455078 7.42412109 -13.09455078 7.42412109 -14 7 C-14 6.34 -14 5.68 -14 5 C-9.76570244 6.31061591 -5.92592596 7.94356259 -2 10 C-2 7.36 -2 4.72 -2 2 C-2.66 1.67 -3.32 1.34 -4 1 C-2 0 -2 0 0 0 Z " fill="#D16214" transform="translate(17,48)"/>
<path d="M0 0 C0.66 0.33 1.32 0.66 2 1 C1.55269531 1.32871094 1.10539062 1.65742187 0.64453125 1.99609375 C-3.87227248 5.54982632 -6.32447048 8.8936424 -8.6640625 14.14453125 C-10 16 -10 16 -12.6484375 16.76171875 C-13.42445312 16.84035156 -14.20046875 16.91898438 -15 17 C-14.01 16.67 -13.02 16.34 -12 16 C-11.7525 15.154375 -11.505 14.30875 -11.25 13.4375 C-9.16618677 7.70701362 -5.04144583 3.36096389 0 0 Z " fill="#CDD4DA" transform="translate(37,46)"/>
<path d="M0 0 C3.0206993 4.53104895 3.09550242 7.65186434 3 13 C3 13.99 3 14.98 3 16 C1.5 17.6875 1.5 17.6875 0 19 C-0.125 12.25 -0.125 12.25 1 10 C0.9129796 8.28766312 0.75902838 6.57824594 0.5625 4.875 C0.46066406 3.96492188 0.35882813 3.05484375 0.25390625 2.1171875 C0.17011719 1.41851562 0.08632812 0.71984375 0 0 Z " fill="#C0CBD4" transform="translate(115,74)"/>
<path d="M0 0 C0.33 0.66 0.66 1.32 1 2 C4.3 2 7.6 2 11 2 C8.9375 4.0625 8.9375 4.0625 6 6 C2.1875 5.75 2.1875 5.75 -1 5 C-0.67 3.35 -0.34 1.7 0 0 Z " fill="#FBE55B" transform="translate(26,42)"/>
<path d="M0 0 C2.97 0.495 2.97 0.495 6 1 C5.67 1.99 5.34 2.98 5 4 C5.61875 4.28875 6.2375 4.5775 6.875 4.875 C9 6 9 6 11 8 C9.35 7.67 7.7 7.34 6 7 C6 6.34 6 5.68 6 5 C4.824375 4.7834375 4.824375 4.7834375 3.625 4.5625 C1 4 1 4 -1 3 C-0.67 2.01 -0.34 1.02 0 0 Z " fill="#CBD4DC" transform="translate(99,59)"/>
<path d="M0 0 C1.98 0.495 1.98 0.495 4 1 C4.33 2.98 4.66 4.96 5 7 C3.02 7 1.04 7 -1 7 C-0.67 4.69 -0.34 2.38 0 0 Z " fill="#F2D83A" transform="translate(37,22)"/>
<path d="M0 0 C2.31 0 4.62 0 7 0 C5.50415516 2.99168968 2.93920694 3.53039653 0 5 C-1.85801239 6.43691955 -1.85801239 6.43691955 -3 8 C-3 8.66 -3 9.32 -3 10 C-3.99 9.67 -4.98 9.34 -6 9 C-4.84334866 5.53004599 -3.81924446 5.11443335 -1 3 C-0.67 2.01 -0.34 1.02 0 0 Z " fill="#CBD4DD" transform="translate(54,38)"/>
<path d="M0 0 C1.32 0.66 2.64 1.32 4 2 C3.34 2 2.68 2 2 2 C2 2.66 2 3.32 2 4 C1.401875 4.433125 0.80375 4.86625 0.1875 5.3125 C-2.32708737 7.25232454 -3.50149792 9.22777115 -5 12 C-5.75 10.25 -5.75 10.25 -6 8 C-4.1875 6 -4.1875 6 -2 4 C-0.76487921 1.86690808 -0.76487921 1.86690808 0 0 Z " fill="#CDD5DD" transform="translate(18,62)"/>
<path d="M0 0 C2 3 2 3 2 5 C-1.96 5 -5.92 5 -10 5 C-9.34 3.68 -8.68 2.36 -8 1 C-8 1.66 -8 2.32 -8 3 C-5.36 3 -2.72 3 0 3 C0 2.01 0 1.02 0 0 Z " fill="#C96311" transform="translate(43,27)"/>
<path d="M0 0 C0 0.99 0 1.98 0 3 C-3.3 3 -6.6 3 -10 3 C-8.0130571 -0.97388579 -3.91761109 -0.08705802 0 0 Z " fill="#FEF0AB" transform="translate(43,37)"/>
<path d="M0 0 C0 2.64 0 5.28 0 8 C-1.32 7.34 -2.64 6.68 -4 6 C-3.34 6 -2.68 6 -2 6 C-2.33 4.68 -2.66 3.36 -3 2 C-4.32 1.67 -5.64 1.34 -7 1 C-4.53721199 -0.231394 -2.7204945 -0.07159196 0 0 Z " fill="#E79F2B" transform="translate(15,50)"/>
<path d="M0 0 C0.66 0.99 1.32 1.98 2 3 C0.68 5.64 -0.64 8.28 -2 11 C-2.33 11 -2.66 11 -3 11 C-2.25 3.375 -2.25 3.375 0 0 Z " fill="#C2C6BD" transform="translate(27,51)"/>
<path d="M0 0 C3.55780196 0.60990891 6.6828589 1.5783681 10 3 C10 3.66 10 4.32 10 5 C8.51793505 4.745504 7.03931385 4.47088238 5.5625 4.1875 C4.73878906 4.03667969 3.91507813 3.88585938 3.06640625 3.73046875 C2.38449219 3.48941406 1.70257812 3.24835937 1 3 C0.67 2.01 0.34 1.02 0 0 Z " fill="#DBB55A" transform="translate(15,29)"/>
<path d="M0 0 C4.05281712 1.22527029 7.44360764 2.69880494 11 5 C10.01 5.495 10.01 5.495 9 6 C6.8359375 5.22265625 6.8359375 5.22265625 4.375 4.0625 C3.55773437 3.68222656 2.74046875 3.30195312 1.8984375 2.91015625 C1.27195312 2.60980469 0.64546875 2.30945312 0 2 C0 1.34 0 0.68 0 0 Z " fill="#CB722F" transform="translate(3,53)"/>
<path d="M0 0 C0.33 0 0.66 0 1 0 C1 3.96 1 7.92 1 12 C-1.64285714 8.03571429 -1.64285714 8.03571429 -2 5 C-1.0625 2.25 -1.0625 2.25 0 0 Z " fill="#C8D1DA" transform="translate(9,77)"/>
<path d="M0 0 C1.5 1.25 1.5 1.25 3 3 C3 4.32 3 5.64 3 7 C4.32 7.66 5.64 8.32 7 9 C6.01 9.33 5.02 9.66 4 10 C4 9.34 4 8.68 4 8 C3.34 8 2.68 8 2 8 C0.23537317 4.91190305 0 3.76687864 0 0 Z " fill="#C18629" transform="translate(14,29)"/>
<path d="M0 0 C0.99 0 1.98 0 3 0 C3.66 2.64 4.32 5.28 5 8 C3 7 3 7 2 4 C1.01 3.67 0.02 3.34 -1 3 C-0.67 2.01 -0.34 1.02 0 0 Z " fill="#C78E43" transform="translate(38,19)"/>
<path d="M0 0 C6.93 0.495 6.93 0.495 14 1 C14 1.33 14 1.66 14 2 C4.58997722 3.51708428 4.58997722 3.51708428 0 1 C0 0.67 0 0.34 0 0 Z " fill="#BEC9D3" transform="translate(47,103)"/>
<path d="M0 0 C0.66 0.33 1.32 0.66 2 1 C2.625 4.0625 2.625 4.0625 3 7 C1.68 7.33 0.36 7.66 -1 8 C-0.67 7.34 -0.34 6.68 0 6 C0.039992 4.00039988 0.04346799 1.99952758 0 0 Z " fill="#E99C26" transform="translate(20,55)"/>
</svg>
